# File created by Blade
# Date/Time:  Wed Jan 21 18:34:41 2015
# Frame Rate: 120.000 fps
#------------------------------------------------------
:FULLY-SPECIFIED
:DEGREES
1663
root 2.611205 32.778108 -7.441418 40.823535 4.761867 1.376294
RightUpLeg -36.468405 -18.521230 8.453175
RightLeg -2.240009 -0.000000 0.000000
RightFoot -8.884600 -2.085665 22.240793
RightToeBase 21.768167 -0.000000 -0.000000
LeftUpLeg -38.751285 10.313030 -3.026085
LeftLeg 1.994778 -0.000000 -0.000000
LeftFoot -3.053533 -8.222455 -14.918631
LeftToeBase 3.475135 -0.000000 -0.000000
Spine -47.937805 0.497161 -2.638062
RightShoulder -14.747364 24.737881 -40.975494
RightArm 7.073606 -11.598906 51.941439
RightForeArm 5.333754 -0.000000 -4.172292
RightHand 7.257029 -0.000000 11.163701
RightHandThumb1 -24.326973 -0.000000 -32.862282
LeftShoulder -4.735879 -5.502364 34.727960
LeftArm 33.489390 -3.055537 -52.918223
LeftForeArm 17.858734 -0.000000 -1.614651
LeftHand -19.827188 -0.000000 -11.769279
LeftHandThumb1 -26.253704 0.000000 33.147579
Head 5.348703 -2.960442 6.685686
1664
root 2.608417 32.776796 -7.455628 40.747782 4.722810 1.363353
RightUpLeg -36.416640 -18.484671 8.417794
RightLeg -2.235174 -0.000000 0.000000
RightFoot -8.887592 -2.081599 22.246248
RightToeBase 21.794584 -0.000000 -0.000000
LeftUpLeg -38.699772 10.352053 -3.025583
LeftLeg 1.999360 -0.000000 -0.000000
LeftFoot -3.069880 -8.220892 -14.931541
LeftToeBase 3.487966 -0.000000 -0.000000
Spine -48.020504 0.489726 -2.688425
RightShoulder -14.348826 25.220457 -40.829288
RightArm 7.811022 -12.112273 52.447911
RightForeArm 4.999924 -0.000000 -3.952487
RightHand 7.501489 -0.000000 11.572775
RightHandThumb1 -24.326973 -0.000000 -32.862282
LeftShoulder -4.282112 -5.842303 34.714333
LeftArm 34.616927 -2.180446 -52.975491
LeftForeArm 17.229033 -0.000000 -1.491683
LeftHand -19.453962 -0.000000 -11.919347
LeftHandThumb1 -26.253704 0.000000 33.147579
Head 5.581005 -3.004450 6.820273
1665
root 2.605513 32.775740 -7.469490 40.689328 4.704358 1.348825
RightUpLeg -36.382827 -18.474230 8.415775
RightLeg -2.237876 -0.000000 0.000000
RightFoot -8.864438 -2.071140 22.246961
RightToeBase 21.756753 -0.000000 -0.000000
LeftUpLeg -38.667164 10.382739 -3.017460
LeftLeg 2.002692 -0.000000 -0.000000
LeftFoot -3.067010 -8.242617 -14.959030
LeftToeBase 3.522379 -0.000000 -0.000000
Spine -48.110781 0.460066 -2.695031
RightShoulder -13.916143 25.575922 -40.676257
RightArm 8.655920 -12.904190 52.914124
RightForeArm 4.988644 -0.000000 -3.739511
RightHand 7.915516 -0.000000 11.840374
RightHandThumb1 -24.326973 -0.000000 -32.862282
LeftShoulder -3.837480 -6.145511 34.670687
LeftArm 35.789216 -1.419891 -53.057833
LeftForeArm 16.790808 -0.000000 -1.395710
LeftHand -19.092237 -0.000000 -12.251619
LeftHandThumb1 -26.253704 0.000000 33.147579
Head 5.760193 -2.991919 6.899434
1666
root 2.602190 32.774461 -7.484830 40.632903 4.678903 1.325790
RightUpLeg -36.357354 -18.449049 8.411799
RightLeg -2.227206 -0.000000 0.000000
RightFoot -8.854256 -2.052467 22.262586
RightToeBase 21.785893 -0.000000 -0.000000
LeftUpLeg -38.640585 10.416638 -3.002670
LeftLeg 2.010013 -0.000000 -0.000000
LeftFoot -3.072768 -8.236860 -14.911302
LeftToeBase 3.430176 -0.000000 -0.000000
Spine -48.194166 0.442527 -2.694905
RightShoulder -13.486170 25.960815 -40.551760
RightArm 9.495593 -13.530710 53.417886
RightForeArm 4.685944 -0.000000 -3.537537
RightHand 8.323033 0.000000 12.264567
RightHandThumb1 -24.326973 -0.000000 -32.862282
LeftShoulder -3.362412 -6.508825 34.654344
LeftArm 36.844892 -0.496344 -53.054240
LeftForeArm 16.221312 -0.000000 -1.231044
LeftHand -18.766887 -0.000000 -12.452045
LeftHandThumb1 -26.253704 0.000000 33.147579
Head 5.926497 -2.965394 6.959154
1667
root 2.599818 32.772883 -7.501546 40.587532 4.646084 1.314039
RightUpLeg -36.347792 -18.421195 8.399894
RightLeg -2.217304 -0.000000 0.000000
RightFoot -8.848811 -2.052806 22.213154
RightToeBase 21.829665 -0.000000 -0.000000
LeftUpLeg -38.622801 10.451834 -3.005121
LeftLeg 2.011238 -0.000000 -0.000000
LeftFoot -3.087088 -8.257446 -14.975746
LeftToeBase 3.522885 -0.000000 -0.000000
Spine -48.270261 0.428508 -2.725855
RightShoulder -13.082697 26.359167 -40.433152
RightArm 10.330227 -14.286875 53.900154
RightForeArm 4.470563 -0.000000 -3.375769
RightHand 8.841371 0.000000 12.525504
RightHandThumb1 -24.326973 -0.000000 -32.862282
LeftShoulder -2.908228 -7.073379 34.651332
LeftArm 37.778657 0.791178 -52.883956
LeftForeArm 15.289656 0.000000 -1.034315
LeftHand -18.649903 0.000000 -12.541509
LeftHandThumb1 -26.253704 0.000000 33.147579
Head 6.024327 -2.973736 7.047332
1668
root 2.598049 32.771766 -7.518792 40.542617 4.609044 1.298880
RightUpLeg -36.329763 -18.359751 8.364271
RightLeg -2.209499 -0.000000 0.000000
RightFoot -8.852313 -2.088903 22.216348
RightToeBase 21.797637 -0.000000 -0.000000
LeftUpLeg -38.606943 10.479015 -3.003810
LeftLeg 2.014280 -0.000000 -0.000000
LeftFoot -3.092799 -8.248664 -14.965912
LeftToeBase 3.512992 -0.000000 -0.000000
Spine -48.338179 0.402499 -2.725795
RightShoulder -12.648943 26.774322 -40.323338
RightArm 11.160941 -14.919591 54.407899
RightForeArm 4.347171 -0.000000 -3.209489
RightHand 9.343480 -0.000000 12.963046
RightHandThumb1 -24.326973 -0.000000 -32.862282
LeftShoulder -2.454051 -7.584713 34.655189
LeftArm 38.721414 1.805791 -52.873637
LeftForeArm 14.773925 -0.000000 -0.847906
LeftHand -18.484175 0.000000 -12.728850
LeftHandThumb1 -26.253704 0.000000 33.147579
Head 6.120959 -2.906742 7.126756
1669
root 2.595581 32.770600 -7.536821 40.496808 4.577722 1.280499
RightUpLeg -36.330998 -18.321063 8.349165
RightLeg -2.175098 -0.000000 0.000000
RightFoot -8.851770 -2.084972 22.192987
RightToeBase 21.806298 -0.000000 -0.000000
LeftUpLeg -38.594489 10.502928 -2.991939
LeftLeg 2.022758 -0.000000 -0.000000
LeftFoot -3.095819 -8.244480 -14.992118
LeftToeBase 3.500512 -0.000000 -0.000000
Spine -48.386422 0.401938 -2.750344
RightShoulder -12.261527 27.177247 -40.240763
RightArm 11.985109 -15.638261 54.896686
RightForeArm 4.320364 -0.000000 -3.022476
RightHand 9.864008 0.000000 13.133185
RightHandThumb1 -24.326973 -0.000000 -32.862282
LeftShoulder -1.993033 -8.024848 34.643779
LeftArm 39.816902 2.454452 -53.101779
LeftForeArm 14.668032 -0.000000 -0.791694
LeftHand -18.265736 -0.000000 -12.859880
LeftHandThumb1 -26.253704 0.000000 33.147579
Head 6.142376 -2.864384 7.190011
1670
root 2.594136 32.769511 -7.555103 40.455076 4.548355 1.271043
RightUpLeg -36.336093 -18.306081 8.340238
RightLeg -2.154021 -0.000000 0.000000
RightFoot -8.845156 -2.061670 22.209670
RightToeBase 21.832407 -0.000000 -0.000000
LeftUpLeg -38.582713 10.504738 -2.979939
LeftLeg 2.030185 -0.000000 -0.000000
LeftFoot -3.110542 -8.211804 -14.994134
LeftToeBase 3.510017 -0.000000 -0.000000
Spine -48.431339 0.376704 -2.755518
RightShoulder -11.838789 27.574756 -40.180429
RightArm 12.779332 -16.327518 55.432205
RightForeArm 4.400280 -0.000000 -2.802493
RightHand 10.394809 -0.000000 13.120022
RightHandThumb1 -24.326973 -0.000000 -32.862282
LeftShoulder -1.544265 -8.384578 34.625697
LeftArm 40.965279 3.041693 -53.335691
LeftForeArm 14.711206 0.000000 -0.772071
LeftHand -17.951293 -0.000000 -12.970827
LeftHandThumb1 -26.253704 0.000000 33.147579
Head 6.160706 -2.852742 7.239077
1671
root 2.593830 32.768637 -7.572498 40.398676 4.515966 1.255334
RightUpLeg -36.333523 -18.303888 8.342623
RightLeg -2.119167 -0.000000 0.000000
RightFoot -8.818771 -2.019418 22.211671
RightToeBase 21.808980 -0.000000 -0.000000
LeftUpLeg -38.553192 10.526939 -2.976852
LeftLeg 2.029286 -0.000000 -0.000000
LeftFoot -3.120932 -8.192357 -14.978456
LeftToeBase 3.515112 -0.000000 -0.000000
Spine -48.457915 0.363624 -2.762742
RightShoulder -11.424274 28.031018 -40.105549
RightArm 13.579200 -17.023668 55.927004
RightForeArm 4.362138 -0.000000 -2.639333
RightHand 10.770499 -0.000000 13.196555
RightHandThumb1 -24.326973 -0.000000 -32.862282
LeftShoulder -1.054664 -8.875285 34.657056
LeftArm 41.895915 3.905784 -53.444624
LeftForeArm 14.504048 0.000000 -0.569066
LeftHand -17.680748 -0.000000 -13.043772
LeftHandThumb1 -26.253704 0.000000 33.147579
Head 6.190222 -2.785286 7.316797
1672
root 2.592821 32.767637 -7.595080 40.374065 4.480880 1.244483
RightUpLeg -36.376435 -18.282550 8.344482
RightLeg -2.079336 -0.000000 0.000000
RightFoot -8.814580 -2.008579 22.161060
RightToeBase 21.821131 -0.000000 -0.000000
LeftUpLeg -38.572274 10.542605 -2.982681
LeftLeg 2.043752 -0.000000 -0.000000
LeftFoot -3.129678 -8.171489 -14.971661
LeftToeBase 3.529347 -0.000000 -0.000000
Spine -48.497331 0.332509 -2.743560
RightShoulder -11.002805 28.470113 -40.062664
RightArm 14.474590 -17.042687 56.626429
RightForeArm 3.603209 -0.000000 -2.699121
RightHand 11.166709 -0.000000 12.765574
RightHandThumb1 -24.326973 -0.000000 -32.862282
LeftShoulder -0.590745 -9.263831 34.639185
LeftArm 42.940875 4.689963 -53.478886
LeftForeArm 14.379818 0.000000 -0.420118
LeftHand -17.237462 -0.000000 -13.185351
LeftHandThumb1 -26.253704 0.000000 33.147579
Head 6.169637 -2.704536 7.348602
1673
root 2.589870 32.766280 -7.615783 40.341408 4.448493 1.225143
RightUpLeg -36.395764 -18.235013 8.333433
RightLeg -2.041869 -0.000000 0.000000
RightFoot -8.809262 -2.015953 22.147213
RightToeBase 21.791314 -0.000000 -0.000000
LeftUpLeg -38.588179 10.582710 -2.989935
LeftLeg 2.065032 -0.000000 -0.000000
LeftFoot -3.134057 -8.169643 -14.943216
LeftToeBase 3.522049 -0.000000 -0.000000
Spine -48.526798 0.298746 -2.725132
RightShoulder -10.504769 28.900962 -39.950880
RightArm 15.231348 -18.522028 56.831385
RightForeArm 4.565085 -0.000000 -2.184422
RightHand 11.129352 -0.000000 13.109684
RightHandThumb1 -24.326973 -0.000000 -32.862282
LeftShoulder -0.143099 -9.421883 34.610356
LeftArm 44.206213 5.303494 -53.477220
LeftForeArm 14.618950 -0.000000 -0.284661
LeftHand -16.857177 0.000000 -13.534105
LeftHandThumb1 -26.253704 0.000000 33.147579
Head 6.155897 -2.651690 7.395235
1674
root 2.589106 32.765962 -7.635372 40.294036 4.418419 1.222854
RightUpLeg -36.411065 -18.251859 8.344978
RightLeg -2.013916 -0.000000 0.000000
RightFoot -8.797309 -1.978063 22.114170
RightToeBase 21.843658 -0.000000 -0.000000
LeftUpLeg -38.577127 10.600703 -3.006183
LeftLeg 2.071481 -0.000000 -0.000000
LeftFoot -3.126911 -8.147163 -14.937843
LeftToeBase 3.507773 -0.000000 -0.000000
Spine -48.538129 0.249780 -2.707617
RightShoulder -10.028720 29.298746 -39.836035
RightArm 16.093229 -19.391809 57.163821
RightForeArm 5.049690 -0.000000 -1.932623
RightHand 11.269123 -0.000000 13.376947
RightHandThumb1 -24.326973 -0.000000 -32.862282
LeftShoulder 0.305910 -9.769314 34.580978
LeftArm 45.300084 6.146853 -53.368418
LeftForeArm 14.574189 0.000000 -0.132585
LeftHand -16.510598 0.000000 -13.787920
LeftHandThumb1 -26.253704 0.000000 33.147579
Head 6.159439 -2.600329 7.431876
1675
root 2.588444 32.766092 -7.653800 40.254840 4.375298 1.217670
RightUpLeg -36.426345 -18.255838 8.348802
RightLeg -1.992010 -0.000000 0.000000
RightFoot -8.772428 -1.938080 22.117072
RightToeBase 21.859123 -0.000000 -0.000000
LeftUpLeg -38.568110 10.623409 -3.023178
LeftLeg 2.074122 -0.000000 -0.000000
LeftFoot -3.122105 -8.115691 -14.914271
LeftToeBase 3.534265 -0.000000 -0.000000
Spine -48.551224 0.197178 -2.670243
RightShoulder -9.540954 29.750615 -39.724550
RightArm 17.014296 -20.414695 57.459720
RightForeArm 5.768328 -0.000000 -1.829427
RightHand 11.383407 -0.000000 13.250163
RightHandThumb1 -24.326973 -0.000000 -32.862282
LeftShoulder 0.764800 -10.073359 34.553377
LeftArm 46.359509 6.926694 -53.272132
LeftForeArm 14.429977 -0.000000 0.122138
LeftHand -16.300809 -0.000000 -13.678024
LeftHandThumb1 -26.253704 0.000000 33.147579
Head 6.138514 -2.488372 7.445771
